<svg width="51" height="45" viewBox="0 0 51 45" fill="none" xmlns="http://www.w3.org/2000/svg">
<g clip-path="url(#clip0_218_1515)">
<path d="M40.5355 3.34351H17.5981V11.9043H45.4344V7.75074C45.4344 5.32036 43.2367 3.34351 40.5355 3.34351Z" fill="#CED9F9"/>
<path d="M27.5515 13.2217H0.723877V5.27824C0.723877 2.36755 3.35564 0 6.59088 0H15.1686C16.0212 0 16.8425 0.161705 17.5887 0.465546C18.6308 0.888176 19.5261 1.58478 20.154 2.49493L27.5515 13.2217Z" fill="#0A1F6A"/>
<path d="M50.7239 15.0002V40.5873C50.7239 43.0208 48.5228 45.0001 45.8178 45.0001H5.62996C2.92496 45.0001 0.723877 43.0208 0.723877 40.5873V10.5864H45.8178C48.5228 10.5864 50.7239 12.5664 50.7239 15.0002Z" fill="#2447C5"/>
<path d="M50.7239 15.0002V40.5873C50.7239 43.0208 48.5228 45.0001 45.8178 45.0001H25.7239V10.5864H45.8178C48.5228 10.5864 50.7239 12.5664 50.7239 15.0002Z" fill="#1F3A9A"/>
<path d="M38.8762 27.7926C38.8762 34.3202 32.976 39.6308 25.7238 39.6308C18.4717 39.6308 12.5715 34.3202 12.5715 27.7926C12.5715 21.2661 18.4717 15.9556 25.7238 15.9556C32.976 15.9556 38.8762 21.2661 38.8762 27.7926Z" fill="#E7ECFC"/>
<path d="M38.8762 27.7926C38.8762 34.3202 32.976 39.6308 25.7239 39.6308V15.9556C32.976 15.9556 38.8762 21.2661 38.8762 27.7926Z" fill="#BFCCFB"/>
<path d="M29.9631 27.9379C29.6888 28.1469 29.3528 28.2489 29.0197 28.2489C28.6028 28.2489 28.1885 28.09 27.8986 27.7803L27.1887 27.0229V31.9815C27.1887 32.7094 26.5325 33.2999 25.7238 33.2999C24.9151 33.2999 24.259 32.7094 24.259 31.9815V27.0229L23.5491 27.7803C23.0265 28.3368 22.1029 28.4079 21.4846 27.9379C20.8666 27.4685 20.7872 26.637 21.3087 26.0805L24.2083 22.9868C24.5863 22.5844 25.1379 22.353 25.7238 22.353C26.3098 22.353 26.8614 22.5844 27.2394 22.9868L30.139 26.0805C30.6604 26.637 30.5811 27.4685 29.9631 27.9379Z" fill="#143DD0"/>
<path d="M29.9632 27.9379C29.6889 28.1469 29.3528 28.2489 29.0198 28.2489C28.6028 28.2489 28.1886 28.09 27.8986 27.7803L27.1887 27.0229V31.9815C27.1887 32.7094 26.5326 33.2999 25.7239 33.2999V22.353C26.3098 22.353 26.8614 22.5844 27.2395 22.9868L30.139 26.0805C30.6605 26.637 30.5811 27.4685 29.9632 27.9379Z" fill="#2A439C"/>
</g>
<defs>
<clipPath id="clip0_218_1515">
<rect width="50" height="45" fill="white" transform="translate(0.723877)"/>
</clipPath>
</defs>
</svg>
